<svg width="69" height="24" viewBox="0 0 69 24" fill="none" xmlns="http://www.w3.org/2000/svg">
<path d="M26.5468 16.6026C25.7085 16.3152 24.9448 16.023 24.2557 15.7259C23.6144 15.4567 23.0165 15.0935 22.4814 14.6483C21.9903 14.2348 21.5943 13.7195 21.3204 13.1378C21.0254 12.464 20.8837 11.7328 20.9055 10.9972C20.9055 9.36794 21.5309 8.06443 22.7817 7.08666C24.0325 6.10889 25.7843 5.62183 28.0372 5.62548C28.8042 5.62106 29.5704 5.67849 30.3283 5.79718C30.9565 5.88879 31.569 6.06765 32.1481 6.32867C32.6113 6.53407 33.0193 6.84709 33.3382 7.24191C33.6245 7.6166 33.7758 8.07757 33.7677 8.54967C33.7807 9.00052 33.6611 9.44523 33.4238 9.8282C33.2022 10.1793 32.9207 10.4885 32.5921 10.7414C32.0652 10.4279 31.4966 10.1911 30.9033 10.0383C30.1477 9.82946 29.3668 9.72741 28.5831 9.73505C27.7242 9.73505 27.094 9.85682 26.6924 10.1003C26.2921 10.3396 26.0919 10.6483 26.0919 11.0136C26.0899 11.1521 26.1222 11.289 26.1857 11.412C26.2492 11.535 26.342 11.6403 26.4558 11.7186C26.7997 11.9438 27.1768 12.1133 27.5732 12.2209L29.0909 12.7104C30.8852 13.2839 32.2645 14.0145 33.229 14.9022C34.1935 15.7898 34.6788 17.0014 34.6848 18.5368C34.7036 19.3016 34.5392 20.0598 34.2055 20.7475C33.8717 21.4353 33.3783 22.0326 32.7668 22.4893C31.4869 23.4963 29.6065 23.9998 27.1255 23.9998C26.3047 24.0043 25.4853 23.9322 24.6779 23.7843C23.9936 23.6636 23.3289 23.4504 22.7017 23.1505C22.1885 22.9132 21.7374 22.5593 21.3841 22.1167C21.0708 21.7098 20.904 21.2082 20.911 20.6939C20.8976 20.1762 21.0708 19.671 21.3987 19.2711C21.6911 18.9023 22.0505 18.5924 22.4578 18.3578C23.0555 18.8163 23.7163 19.1854 24.4195 19.4537C25.2278 19.7671 26.088 19.9233 26.9544 19.914C27.8898 19.914 28.5486 19.7703 28.9307 19.4829C29.3129 19.1944 29.5039 18.8601 29.5039 18.4766C29.5117 18.3028 29.4733 18.13 29.3927 17.976C29.3122 17.822 29.1923 17.6922 29.0454 17.5999C28.6408 17.3525 28.2083 17.1545 27.757 17.0099L26.5468 16.6026Z" fill="white"/>
<path d="M52.2092 20.6848C52.2092 21.279 52.1042 21.7198 51.8943 22.0071C51.619 22.3493 51.278 22.6325 50.8916 22.84C50.5708 23.0173 50.2354 23.1664 49.8889 23.2857C49.4579 23.4353 49.0179 23.5573 48.5714 23.6509C47.5641 23.8673 46.5371 23.9781 45.5069 23.9815C44.1978 23.9904 42.8948 23.8014 41.6417 23.4208C40.4916 23.0758 39.424 22.4984 38.5044 21.724C37.6026 20.9483 36.8835 19.9814 36.399 18.893C35.8613 17.6517 35.5975 16.3083 35.6256 14.9551C35.6256 13.3843 35.9076 12.0139 36.4717 10.8437C36.9977 9.71956 37.7593 8.72271 38.7046 7.92134C39.6416 7.13981 40.7215 6.54918 41.8838 6.18253C43.0736 5.79955 44.3157 5.60543 45.5652 5.60719C47.3776 5.60719 48.8147 5.89943 49.8762 6.48391C50.9377 7.06838 51.4673 7.83 51.4648 8.76881C51.4767 9.2282 51.3464 9.67998 51.0918 10.062C50.8668 10.4049 50.5745 10.6982 50.2329 10.9241C49.6613 10.5918 49.0629 10.3083 48.444 10.0766C47.6699 9.78881 46.8492 9.6476 46.0237 9.66013C44.4187 9.66013 43.1449 10.1198 42.2022 11.0391C41.2596 11.9585 40.7864 13.2333 40.7828 14.8638C40.7651 15.6433 40.8967 16.419 41.1704 17.1487C41.3984 17.7461 41.7551 18.2856 42.215 18.7286C42.6521 19.1365 43.1698 19.4477 43.7344 19.6418C44.3239 19.8457 44.9435 19.9476 45.567 19.9432C45.9426 19.9478 46.3175 19.9092 46.6843 19.8281C46.9426 19.7755 47.1929 19.6889 47.4286 19.5706V16.8674H44.3641C44.2265 16.6017 44.1161 16.3226 44.0347 16.0345C43.9275 15.6793 43.8741 15.3098 43.8764 14.9386C43.8764 14.2482 44.0341 13.7496 44.3496 13.4428C44.512 13.2891 44.7033 13.1694 44.9123 13.0907C45.1213 13.0119 45.3439 12.9758 45.567 12.9843H50.4076C50.979 12.9843 51.4224 13.142 51.7378 13.4574C52.0545 13.7734 52.211 14.219 52.211 14.7944L52.2092 20.6848Z" fill="white"/>
<path d="M59.4846 23.4154C59.1591 23.4932 58.8291 23.5505 58.4964 23.5871C58.0548 23.6451 57.6098 23.6744 57.1644 23.6748C56.775 23.6787 56.3863 23.6451 56.0034 23.5743C55.6983 23.5172 55.4098 23.3924 55.159 23.2091C54.9215 23.0243 54.7427 22.7743 54.644 22.4894C54.5163 22.1003 54.4577 21.6916 54.4711 21.2821V7.74245C54.4608 7.57266 54.4846 7.40253 54.5412 7.24218C54.5978 7.08183 54.686 6.93455 54.8005 6.80913C55.0596 6.5649 55.3708 6.38315 55.7104 6.27764C56.4305 6.03112 57.1747 5.86213 57.9305 5.77353C58.7617 5.66903 59.5986 5.61657 60.4363 5.61646C63.0713 5.61646 65.0858 6.18143 66.4798 7.31141C67.8737 8.44139 68.5707 9.97503 68.5707 11.9123C68.5827 12.7802 68.4321 13.6427 68.1267 14.4547C67.8401 15.1982 67.3897 15.867 66.8092 16.4109C66.1741 16.9879 65.4215 17.4192 64.6036 17.6748C63.6078 17.9884 62.5681 18.1389 61.5245 18.1205H59.4919L59.4846 23.4154ZM60.9731 14.1881C61.7751 14.1881 62.3908 14.0012 62.8202 13.6274C63.2497 13.2536 63.4644 12.6837 63.4644 11.9178C63.4644 11.1872 63.24 10.6265 62.7911 10.2356C62.3422 9.84473 61.6883 9.64808 60.8294 9.64565C60.5237 9.64565 60.2707 9.64564 60.0705 9.66025C59.8642 9.67099 59.6588 9.69479 59.4555 9.73149V14.1899L60.9731 14.1881Z" fill="white"/>
<path d="M17.5462 0H12.4654C12.1496 0.000963511 11.8469 0.1273 11.6236 0.351449C11.4003 0.575598 11.2744 0.879335 11.2734 1.19633V22.3177C11.2744 22.6347 11.4003 22.9384 11.6236 23.1626C11.8469 23.3867 12.1496 23.5131 12.4654 23.514H17.5462C17.862 23.5131 18.1646 23.3867 18.388 23.1626C18.6113 22.9384 18.7372 22.6347 18.7382 22.3177V1.19633C18.7372 0.879335 18.6113 0.575598 18.388 0.351449C18.1646 0.1273 17.862 0.000963511 17.5462 0ZM14.8857 20.8711C14.5375 20.8715 14.197 20.7682 13.9074 20.5742C13.6177 20.3803 13.3919 20.1045 13.2584 19.7816C13.125 19.4588 13.09 19.1036 13.1579 18.7608C13.2257 18.418 13.3933 18.1031 13.6395 17.856C13.8858 17.6089 14.1995 17.4407 14.541 17.3726C14.8825 17.3045 15.2365 17.3396 15.5581 17.4735C15.8797 17.6074 16.1546 17.8341 16.3478 18.1248C16.541 18.4155 16.644 18.7573 16.6436 19.1068C16.6436 19.5747 16.4584 20.0235 16.1287 20.3543C15.799 20.6852 15.3519 20.8711 14.8857 20.8711ZM16.6436 5.49951H13.126V2.10408H16.6436V5.49951Z" fill="white"/>
<path d="M10.3381 2.05103L5.64129 1.01541C5.34915 0.95232 5.044 1.00775 4.79241 1.16959C4.54082 1.33143 4.36318 1.58656 4.29828 1.87933L0.0254505 21.4044C-0.0375052 21.6975 0.0174125 22.0038 0.178261 22.2566C0.339109 22.5094 0.592874 22.6882 0.884379 22.7541L5.58123 23.7879C5.87338 23.8516 6.17878 23.7967 6.43074 23.6352C6.6827 23.4736 6.86074 23.2186 6.92602 22.9258L11.1971 3.39897C11.261 3.10593 11.2064 2.79939 11.0454 2.54667C10.8844 2.29395 10.63 2.1157 10.3381 2.05103ZM5.63947 19.5304C5.56905 19.8531 5.40487 20.1477 5.16774 20.3768C4.9306 20.6059 4.63111 20.7594 4.30712 20.8178C3.98313 20.8762 3.64919 20.8368 3.34745 20.7048C3.04571 20.5727 2.78973 20.3539 2.61185 20.0759C2.43398 19.7979 2.34219 19.4732 2.34808 19.1429C2.35398 18.8126 2.4573 18.4914 2.64498 18.22C2.83265 17.9486 3.09626 17.7391 3.40252 17.618C3.70877 17.4969 4.04393 17.4695 4.36563 17.5395C4.57975 17.5859 4.78264 17.6742 4.96266 17.7994C5.14267 17.9247 5.29626 18.0844 5.41462 18.2694C5.53298 18.4543 5.61377 18.661 5.65236 18.8774C5.69094 19.0938 5.68657 19.3157 5.63947 19.5304ZM8.39277 6.95146L5.13904 6.23364L5.82692 3.09577L9.07883 3.81176L8.39277 6.95146Z" fill="white"/>
</svg>
